<svg xmlns="http://www.w3.org/2000/svg" viewBox="0 0 24 24" fill="#000"><path d="M12 2.2c3.2 0 3.6 0 4.9.1 1.2.1 1.9.2 2.3.4.6.2 1 .5 1.4.9.4.4.7.8.9 1.4.2.4.3 1.1.4 2.3.1 1.3.1 1.7.1 4.9s0 3.6-.1 4.9c-.1 1.2-.2 1.9-.4 2.3-.2.6-.5 1-.9 1.4-.4.4-.8.7-1.4.9-.4.2-1.1.3-2.3.4-1.3.1-1.7.1-4.9.1s-3.6 0-4.9-.1c-1.2-.1-1.9-.2-2.3-.4-.6-.2-1-.5-1.4-.9-.4-.4-.7-.8-.9-1.4-.2-.4-.3-1.1-.4-2.3-.1-1.3-.1-1.7-.1-4.9s0-3.6.1-4.9c.1-1.2.2-1.9.4-2.3.2-.6.5-1 .9-1.4.4-.4.8-.7 1.4-.9.4-.2 1.1-.3 2.3-.4 1.3-.1 1.7-.1 4.9-.1m0-2.2C8.7 0 8.3 0 7 .1 5.6.2 4.5.4 3.6.7 2.7 1 1.9 1.6 1.3 2.2.7 2.9.2 3.7 0 4.6c-.3.9-.5 2-.6 3.4C-.7 9.3-.7 9.7-.7 12s0 2.7.1 3.9c.1 1.3.3 2.5.6 3.4.3.9.9 1.7 1.5 2.3.6.6 1.4 1.2 2.3 1.5.9.3 2 .5 3.4.6 1.2.1 1.6.1 3.9.1s2.7 0 3.9-.1c1.3-.1 2.5-.3 3.4-.6.9-.3 1.7-.9 2.3-1.5.6-.6 1.2-1.4 1.5-2.3.3-.9.5-2 .6-3.4.1-1.2.1-1.6.1-3.9s0-2.7-.1-3.9c-.1-1.3-.3-2.5-.6-3.4-.3-.9-.9-1.7-1.5-2.3C20.1.7 19.3.2 18.4 0c-.9-.3-2-.5-3.4-.6C15.3 0 14.9 0 12 0z"/></svg>